<?xml version="1.0" standalone="no"?>
<!DOCTYPE svg PUBLIC "-//W3C//DTD SVG 1.1//EN" "http://www.w3.org/Graphics/SVG/1.1/DTD/svg11.dtd">

<svg xmlns="http://www.w3.org/2000/svg" xmlns:xlink="http://www.w3.org/1999/xlink"
                      viewBox="0 0 260 260" class="step-svg">
                      <defs></defs>
                      <title>Lander-step-count-2</title>
                      <g id="Layer_1" data-name="Layer 1">
                        <g id="_2" data-name="2">
                          <rect class="cls-none" x="-128" y="28" width="260" height="260"></rect>
                          <path class="cls-white"
                            d="M7.69,259.77a7,7,0,0,1-7-7V239.38a7,7,0,0,1,2.1-5c7-6.81,13.71-13.42,19.73-19.53,13.07-13.37,19.3-21.69,19.3-32.82,0-6.51-2.06-10.25-6.14-11.15l-.81,4.83c-.88,5.51-4.41,18.48-18,18.48a17.82,17.82,0,0,1-16-10,7.05,7.05,0,0,1-.73-3.31c.53-19.12,17.36-32,41.87-32,12.13,0,21.68,3.13,28.4,9.31,6.32,5.81,9.66,14,9.66,23.62,0,17.49-12.71,30.67-33.58,45.41H75a7,7,0,0,1,7,7v18.49a7,7,0,0,1-7,7Z">
                          </path>
                          <rect class="cls-white" y="169" width="47" height="75"></rect>
                          <path class="col-fill-company"
                            d="M24.23,234.28c4.47-3.24,8.89-6.34,13-9.15C62.09,208.26,73,196.33,73,181.87c0-14.67-9.37-25.93-31.06-25.93-18.68,0-34.41,8.65-34.87,25.15a10.74,10.74,0,0,0,9.77,6.1c4.63,0,9.52-2.42,11.15-12.65l1.8-10.67a35.66,35.66,0,0,1,3.83-.21c9.32,0,15.22,6.72,15.22,18.37,0,13.54-7.18,23.28-21.31,37.73-6.13,6.21-12.95,12.9-19.82,19.62v13.39H75V234.28Z">
                          </path>
                        </g>
                      </g>
                      <g id="Layer_2" data-name="Layer 2">
                        <rect class="cls-none" width="260" height="260"></rect>
                      </g>
                    </svg>