<?xml version="1.0" standalone="no"?>
<!DOCTYPE svg PUBLIC "-//W3C//DTD SVG 1.1//EN" "http://www.w3.org/Graphics/SVG/1.1/DTD/svg11.dtd">

    <svg xmlns="http://www.w3.org/2000/svg" xmlns:xlink="http://www.w3.org/1999/xlink" viewBox="0 0 260 260" class="step-svg">
        <defs>
            <style>
                .cls-white {
                    fill: white;
                          }
                .cls-none {
                    fill: none;
                          }
            </style>
        </defs>
        <title>Lander-step-count-3</title>
        <g id="Layer_1" data-name="Layer 1">
        <g id="_2" data-name="2">
        <path class="cls-white"
              d="M7.69,259.77a7,7,0,0,1-7-7V239.38a7,7,0,0,1,2.1-5c7-6.81,13.71-13.42,19.73-19.53,13.07-13.37,19.3-21.69,19.3-32.82,0-6.51-2.06-10.25-6.14-11.15l-.81,4.83c-.88,5.51-4.41,18.48-18,18.48a17.82,17.82,0,0,1-16-10,7.05,7.05,0,0,1-.73-3.31c.53-19.12,17.36-32,41.87-32,12.13,0,21.68,3.13,28.4,9.31,6.32,5.81,9.66,14,9.66,23.62,0,17.49-12.71,30.67-33.58,45.41H75a7,7,0,0,1,7,7v18.49a7,7,0,0,1-7,7Z">
        </path>
        <rect class="cls-white" y="169" width="47" height="75"></rect>
        </g>
        <g id="_3" data-name="3">
        <path class="cls-white"
              d="M41.11,259.32c-24.62,0-39.29-11.66-40.26-32a7.07,7.07,0,0,1,.46-2.84,17,17,0,0,1,16.06-11.27c15.67,0,17.61,14.84,18.25,19.72l.56,4.29c8-.64,11-4.54,11-13.61,0-8.79-3.77-12.54-12.59-12.54h-5.4a7,7,0,0,1-7-7v-8.53a7,7,0,0,1,7-7h4.46c8.58,0,11.76-3.24,11.76-12,0-6.83-2.13-9.4-5.56-10.19l-.66,4C37.47,180.78,30.62,187,20.86,187a16.61,16.61,0,0,1-14.77-8.48,7.08,7.08,0,0,1-.88-3.42c0-18.73,14.77-30.83,37.51-30.83,12.44,0,22.39,2.86,29.58,8.51a28.55,28.55,0,0,1,11,22.95A28.14,28.14,0,0,1,72.37,198c9.26,5.61,13.94,14.46,13.94,26.47C86.31,245.32,68.15,259.32,41.11,259.32Z">
        </path>
        <rect class="cls-white" x="6" y="166" width="49" height="75"></rect>
        <path class="col-fill-company"
              d="M54.65,199.09c15.4-4.26,21.67-13.83,21.67-23.4,0-13.9-11-24.46-33.6-24.46-16.13,0-30.47,7.31-30.51,23.84A9.69,9.69,0,0,0,20.86,180c5.57,0,10.12-2.88,11.41-10.67l1.64-10a25.16,25.16,0,0,1,2.83-.19c9.88,0,15.66,5.76,15.66,17.48,0,13.34-7,19-18.76,19H29.18v8.53h5.4c12.67,0,19.59,6.9,19.59,19.54,0,14.1-7.1,20.71-20.59,20.71a22.56,22.56,0,0,1-3.56-.27l-1.35-10.22c-1.37-10.47-5-13.62-11.3-13.62A9.92,9.92,0,0,0,7.84,227c.77,16.19,12.07,25.33,33.27,25.33,24,0,38.2-11.82,38.2-27.83C79.31,211.22,72.54,202.34,54.65,199.09Z">
        </path>
        </g>
        </g>
        <g id="Layer_2" data-name="Layer 2">
        <rect class="cls-none" width="260" height="260"></rect>
        </g>
    </svg>
