<svg height="512" viewBox="0 0 510 510" width="512" xmlns="http://www.w3.org/2000/svg" xmlns:xlink="http://www.w3.org/1999/xlink" style="transform: rotateY(180deg)"><linearGradient id="a"><stop offset="0" stop-color="#4f4a72"/><stop offset="1" stop-color="#3b395f"/></linearGradient><linearGradient id="i" gradientUnits="userSpaceOnUse" x1="202.527" x2="202.527" xlink:href="#a" y1="139.757" y2="349.1"/><linearGradient id="b"><stop offset="0" stop-color="#ffe548"/><stop offset=".176" stop-color="#ffde50"/><stop offset=".445" stop-color="#ffca65"/><stop offset=".771" stop-color="#ffaa87"/><stop offset="1" stop-color="#ff90a4"/></linearGradient><linearGradient id="j" gradientUnits="userSpaceOnUse" x1="197.286" x2="208.286" xlink:href="#b" y1="126.193" y2="148.193"/><linearGradient id="c"><stop offset="0" stop-color="#d4f7ff"/><stop offset="1" stop-color="#a2e3e9"/></linearGradient><linearGradient id="k" gradientUnits="userSpaceOnUse" x1="313.911" x2="384.064" xlink:href="#c" y1="154.731" y2="320.783"/><linearGradient id="l" gradientUnits="userSpaceOnUse" x1="332.064" x2="362.65" xlink:href="#c" y1="297.11" y2="369.505"/><linearGradient id="m" gradientUnits="userSpaceOnUse" x1="332.064" x2="362.65" xlink:href="#c" y1="247.405" y2="319.8"/><linearGradient id="n" gradientUnits="userSpaceOnUse" x1="332.064" x2="362.65" xlink:href="#c" y1="197.701" y2="270.095"/><linearGradient id="o" gradientUnits="userSpaceOnUse" x1="332.064" x2="362.65" xlink:href="#c" y1="147.996" y2="220.391"/><linearGradient id="p" gradientUnits="userSpaceOnUse" x1="332.064" x2="362.65" xlink:href="#c" y1="98.291" y2="170.686"/><linearGradient id="q" gradientUnits="userSpaceOnUse" x1="188.549" x2="240.451" xlink:href="#c" y1="172.928" y2="295.779"/><linearGradient id="r" gradientUnits="userSpaceOnUse" x1="455.176" x2="507.078" xlink:href="#c" y1="172.928" y2="295.779"/><linearGradient id="d"><stop offset="0" stop-color="#c4f8b6"/><stop offset="1" stop-color="#3b8eac"/></linearGradient><linearGradient id="s" gradientUnits="userSpaceOnUse" x1="67.419" x2="178.752" xlink:href="#d" y1="197.158" y2="405.825"/><linearGradient id="t" gradientUnits="userSpaceOnUse" x1="32.171" x2="135.211" xlink:href="#d" y1="226.559" y2="350.589"/><linearGradient id="u" gradientUnits="userSpaceOnUse" x1="112.542" x2="123.769" xlink:href="#a" y1="209.354" y2="278.773"/><linearGradient id="e"><stop offset="0" stop-color="#a34a9e" stop-opacity="0"/><stop offset="1" stop-color="#343168"/></linearGradient><linearGradient id="v" gradientUnits="userSpaceOnUse" x1="82.886" x2="-29.615" xlink:href="#e" y1="287.13" y2="214.13"/><linearGradient id="w" gradientUnits="userSpaceOnUse" x1="49.62" x2="49.62" xlink:href="#a" y1="237.091" y2="263.759"/><linearGradient id="x" gradientUnits="userSpaceOnUse" x1="117.99" x2="117.99" xlink:href="#e" y1="273.419" y2="380.761"/><linearGradient id="y" gradientUnits="userSpaceOnUse" x1="391.214" x2="391.214" xlink:href="#e" y1="289.329" y2="460.06"/><linearGradient id="z" gradientUnits="userSpaceOnUse" x1="253.617" x2="253.617" xlink:href="#a" y1="334.754" y2="366.448"/><linearGradient id="f"><stop offset="0" stop-color="#a34a9e"/><stop offset=".155" stop-color="#9b489a"/><stop offset=".402" stop-color="#84438f"/><stop offset=".707" stop-color="#5e3b7d"/><stop offset="1" stop-color="#343168"/></linearGradient><radialGradient id="A" cx="110.537" cy="339.741" gradientUnits="userSpaceOnUse" r="66.476" xlink:href="#f"/><linearGradient id="g"><stop offset="0" stop-color="#a34a9e"/><stop offset="1" stop-color="#343168"/></linearGradient><linearGradient id="B" gradientTransform="rotate(180 -809 -809)" gradientUnits="userSpaceOnUse" x1="-1775.603" x2="-1702.213" xlink:href="#g" y1="-2012.79" y2="-1939.4"/><linearGradient id="C" gradientUnits="userSpaceOnUse" x1="81.994" x2="148.681" xlink:href="#c" y1="319.181" y2="385.869"/><linearGradient id="D" gradientTransform="rotate(180 -809 -809)" gradientUnits="userSpaceOnUse" x1="-1756.905" x2="-1718.155" xlink:href="#c" y1="-1994.093" y2="-1955.343"/><linearGradient id="h"><stop offset="0" stop-color="#a2e3e9" stop-opacity="0"/><stop offset="1" stop-color="#518cd2"/></linearGradient><linearGradient id="E" gradientUnits="userSpaceOnUse" x1="144.692" x2="114.635" xlink:href="#h" y1="381.88" y2="351.822"/><linearGradient id="F" gradientUnits="userSpaceOnUse" x1="115.86" x2="126.679" xlink:href="#a" y1="353.048" y2="363.867"/><linearGradient id="G" gradientUnits="userSpaceOnUse" x1="116.082" x2="120.564" xlink:href="#a" y1="328.563" y2="333.045"/><linearGradient id="H" gradientUnits="userSpaceOnUse" x1="116.082" x2="120.564" xlink:href="#a" y1="377.976" y2="382.458"/><linearGradient id="I" gradientTransform="rotate(90 -809 -809)" gradientUnits="userSpaceOnUse" x1="353.269" x2="357.752" xlink:href="#a" y1="-1762.603" y2="-1758.121"/><linearGradient id="J" gradientTransform="rotate(90 -809 -809)" gradientUnits="userSpaceOnUse" x1="353.269" x2="357.752" xlink:href="#a" y1="-1713.19" y2="-1708.708"/><linearGradient id="K" gradientTransform="rotate(45 -809.094 -808.974)" gradientUnits="userSpaceOnUse" x1="667.853" x2="672.335" xlink:href="#a" y1="-667.84" y2="-663.358"/><linearGradient id="L" gradientTransform="rotate(45 -809.094 -808.974)" gradientUnits="userSpaceOnUse" x1="667.853" x2="672.335" xlink:href="#a" y1="-618.426" y2="-613.944"/><linearGradient id="M" gradientTransform="scale(-1 1) rotate(45 .115 1144.211)" gradientUnits="userSpaceOnUse" x1="-643.121" x2="-638.638" xlink:href="#a" y1="643.133" y2="647.615"/><linearGradient id="N" gradientTransform="scale(-1 1) rotate(45 .115 1144.211)" gradientUnits="userSpaceOnUse" x1="-643.121" x2="-638.638" xlink:href="#a" y1="692.547" y2="697.029"/><radialGradient id="O" cx="383.762" cy="339.741" gradientUnits="userSpaceOnUse" r="66.476" xlink:href="#f"/><linearGradient id="P" gradientTransform="rotate(180 -809 -809)" gradientUnits="userSpaceOnUse" x1="-2048.828" x2="-1975.438" xlink:href="#g" y1="-2012.79" y2="-1939.4"/><linearGradient id="Q" gradientUnits="userSpaceOnUse" x1="355.219" x2="421.906" xlink:href="#c" y1="319.181" y2="385.869"/><linearGradient id="R" gradientTransform="rotate(180 -809 -809)" gradientUnits="userSpaceOnUse" x1="-2030.131" x2="-1991.38" xlink:href="#c" y1="-1994.093" y2="-1955.343"/><linearGradient id="S" gradientUnits="userSpaceOnUse" x1="417.917" x2="387.86" xlink:href="#h" y1="381.88" y2="351.822"/><linearGradient id="T" gradientUnits="userSpaceOnUse" x1="389.085" x2="399.904" xlink:href="#a" y1="353.048" y2="363.867"/><linearGradient id="U" gradientUnits="userSpaceOnUse" x1="389.307" x2="393.789" xlink:href="#a" y1="328.563" y2="333.045"/><linearGradient id="V" gradientUnits="userSpaceOnUse" x1="389.307" x2="393.789" xlink:href="#a" y1="377.976" y2="382.458"/><linearGradient id="W" gradientTransform="rotate(90 -809 -809)" gradientUnits="userSpaceOnUse" x1="353.269" x2="357.752" xlink:href="#a" y1="-2035.829" y2="-2031.346"/><linearGradient id="X" gradientTransform="rotate(90 -809 -809)" gradientUnits="userSpaceOnUse" x1="353.269" x2="357.752" xlink:href="#a" y1="-1986.415" y2="-1981.933"/><linearGradient id="Y" gradientTransform="rotate(45 -809.094 -808.974)" gradientUnits="userSpaceOnUse" x1="861.054" x2="865.536" xlink:href="#a" y1="-861.042" y2="-856.559"/><linearGradient id="Z" gradientTransform="rotate(45 -809.094 -808.974)" gradientUnits="userSpaceOnUse" x1="861.054" x2="865.536" xlink:href="#a" y1="-811.628" y2="-807.145"/><linearGradient id="aa" gradientTransform="scale(-1 1) rotate(45 .115 1144.211)" gradientUnits="userSpaceOnUse" x1="-836.322" x2="-831.84" xlink:href="#a" y1="836.334" y2="840.816"/><linearGradient id="ab" gradientTransform="scale(-1 1) rotate(45 .115 1144.211)" gradientUnits="userSpaceOnUse" x1="-836.322" x2="-831.84" xlink:href="#a" y1="885.748" y2="890.23"/><linearGradient id="ac" gradientUnits="userSpaceOnUse" x1="469.145" x2="487.145" y1="298.272" y2="319.938"><stop offset="0" stop-color="#ff4974"/><stop offset=".223" stop-color="#fb3f6c"/><stop offset=".608" stop-color="#f12357"/><stop offset="1" stop-color="#e4003d"/></linearGradient><linearGradient id="ad" gradientUnits="userSpaceOnUse" x1="-8.882" x2="44.785" xlink:href="#d" y1="263.834" y2="323.834"/><linearGradient id="ae" gradientUnits="userSpaceOnUse" x1="-14.036" x2="32.631" xlink:href="#d" y1="269.455" y2="316.121"/><linearGradient id="af" gradientUnits="userSpaceOnUse" x1="21.057" x2="25.754" xlink:href="#b" y1="293.846" y2="333.615"/><linearGradient id="ag" gradientUnits="userSpaceOnUse" x1="29.385" x2="29.385" xlink:href="#a" y1="320.596" y2="351.919"/><linearGradient id="ah" gradientUnits="userSpaceOnUse" x1="488.62" x2="488.62" xlink:href="#a" y1="320.596" y2="351.919"/><path d="M175.486 182.448h54.082v172.729h-54.082z" fill="url(#i)"/><path d="M211 152.481h-12.077a7.294 7.294 0 01-7.294-7.294v-16.308a7.294 7.294 0 017.294-7.294H211z" fill="url(#j)"/><path d="M223.04 106.653h246.114v248.523H223.04z" fill="url(#k)"/><path d="M223.04 305.472h246.114v49.705H223.04z" fill="url(#l)"/><path d="M223.04 255.767h246.114v49.705H223.04z" fill="url(#m)"/><path d="M223.04 206.063h246.114v49.705H223.04z" fill="url(#n)"/><path d="M223.04 156.358h246.114v49.705H223.04z" fill="url(#o)"/><path d="M223.04 106.653h246.114v49.705H223.04z" fill="url(#p)"/><path d="M202.527 106.442v248.735h20.513V106.442a5.113 5.113 0 00-5.113-5.113H207.64a5.113 5.113 0 00-5.113 5.113z" fill="url(#q)"/><path d="M469.154 106.442v248.735h20.513V106.442a5.113 5.113 0 00-5.113-5.113h-10.287a5.113 5.113 0 00-5.113 5.113z" fill="url(#r)"/><path d="M164.156 152.481h-24.254c-50.712 0-92.846 36.711-101.284 85.007-1.171 6.701-5.621 12.37-11.805 15.204a20.817 20.817 0 00-12.146 18.925v83.559H191.63V179.954c-.001-15.173-12.301-27.473-27.474-27.473z" fill="url(#s)"/><path d="M14.862 268.812a20.867 20.867 0 00-.196 2.805v83.559h176.963v-86.365H14.862z" fill="url(#t)"/><path d="M166.265 247.866H62.439c0-39.998 32.425-72.423 72.423-72.423h12.053c10.687 0 19.35 8.663 19.35 19.35z" fill="url(#u)"/><path d="M58.138 238.762c-.472-1.495-1.853-2.586-3.503-2.586-7.577 0-13.72 6.143-13.72 13.72v4.28c0 4.4 2.08 8.307 5.301 10.818l90.182 90.182h38.154z" fill="url(#v)"/><path d="M54.635 267.897c-7.577 0-13.72-6.143-13.72-13.72v-4.28c0-7.577 6.143-13.72 13.72-13.72a3.69 3.69 0 013.69 3.69v24.339a3.69 3.69 0 01-3.69 3.691z" fill="url(#w)"/><path d="M191.99 355.174h-148c0-40.87 33.13-74 74-74 7 0 13.78.97 20.21 2.8 31.05 8.789 53.79 37.339 53.79 71.2z" fill="url(#x)"/><path d="M465.214 355.174h-148c0-40.87 33.13-74 74-74 7 0 13.78.97 20.21 2.8 31.05 8.789 53.79 37.339 53.79 71.2z" fill="url(#y)"/><path d="M31.734 333.058H475.5v25.028H31.734z" fill="url(#z)"/><circle cx="117.989" cy="355.177" fill="url(#A)" r="53.494"/><circle cx="117.989" cy="355.177" fill="url(#B)" r="34.598"/><circle cx="117.989" cy="355.177" fill="url(#C)" r="31.439"/><circle cx="117.989" cy="355.177" fill="url(#D)" r="18.268"/><path d="M146.243 368.972L125.7 348.429a10.222 10.222 0 00-7.71-3.508c-5.664 0-10.256 4.592-10.256 10.256a10.22 10.22 0 003.508 7.71l20.543 20.543a31.563 31.563 0 0014.458-14.458z" fill="url(#E)"/><circle cx="117.989" cy="355.177" fill="url(#F)" r="10.256"/><circle cx="117.989" cy="330.47" fill="url(#G)" r="3.637"/><circle cx="117.989" cy="379.883" fill="url(#H)" r="3.637"/><circle cx="142.696" cy="355.177" fill="url(#I)" r="3.637"/><circle cx="93.282" cy="355.177" fill="url(#J)" r="3.637"/><circle cx="135.46" cy="337.706" fill="url(#K)" r="3.637"/><circle cx="100.519" cy="372.647" fill="url(#L)" r="3.637"/><circle cx="100.519" cy="337.706" fill="url(#M)" r="3.637"/><circle cx="135.46" cy="372.647" fill="url(#N)" r="3.637"/><circle cx="391.214" cy="355.177" fill="url(#O)" r="53.494"/><circle cx="391.214" cy="355.177" fill="url(#P)" r="34.598"/><circle cx="391.214" cy="355.177" fill="url(#Q)" r="31.439"/><circle cx="391.214" cy="355.177" fill="url(#R)" r="18.268"/><path d="M419.468 368.972l-20.543-20.543a10.222 10.222 0 00-7.71-3.508c-5.664 0-10.256 4.592-10.256 10.256a10.22 10.22 0 003.508 7.71l20.543 20.543a31.563 31.563 0 0014.458-14.458z" fill="url(#S)"/><circle cx="391.214" cy="355.177" fill="url(#T)" r="10.256"/><circle cx="391.214" cy="330.47" fill="url(#U)" r="3.637"/><circle cx="391.214" cy="379.883" fill="url(#V)" r="3.637"/><circle cx="415.921" cy="355.177" fill="url(#W)" r="3.637"/><circle cx="366.508" cy="355.177" fill="url(#X)" r="3.637"/><circle cx="408.685" cy="337.706" fill="url(#Y)" r="3.637"/><circle cx="373.744" cy="372.647" fill="url(#Z)" r="3.637"/><circle cx="373.744" cy="337.706" fill="url(#aa)" r="3.637"/><circle cx="408.685" cy="372.647" fill="url(#ab)" r="3.637"/><path d="M489.667 296.344h-8.62c-5.687 0-10.297 4.61-10.297 10.297v20.192h18.917z" fill="url(#ac)"/><path d="M26.813 252.692a20.817 20.817 0 00-12.146 18.925v83.559h28.21v-78.805a53.99 53.99 0 00-7.856-28.045L34.215 247a20.9 20.9 0 01-7.402 5.692z" fill="url(#ad)"/><path d="M42.342 268.812h-27.48v.001a20.844 20.844 0 00-.196 2.804v83.559h28.21v-78.805c0-2.538-.181-5.063-.534-7.559z" fill="url(#ae)"/><path d="M22.485 296.344h-7.818v30.489h18.115V306.64c0-5.686-4.61-10.296-10.297-10.296z" fill="url(#af)"/><path d="M45.142 364.09H13.627C6.101 364.09 0 357.989 0 350.463v-16.172c0-7.526 6.101-13.627 13.627-13.627h31.515c7.526 0 13.627 6.101 13.627 13.627v16.172c0 7.526-6.101 13.627-13.627 13.627z" fill="url(#ag)"/><path d="M496.373 364.09h-15.505c-7.526 0-13.627-6.101-13.627-13.627v-16.172c0-7.526 6.101-13.627 13.627-13.627h15.505c7.526 0 13.627 6.101 13.627 13.627v16.172c0 7.526-6.101 13.627-13.627 13.627z" fill="url(#ah)"/></svg>