<?xml version="1.0" standalone="no"?>
<!DOCTYPE svg PUBLIC "-//W3C//DTD SVG 1.1//EN" "http://www.w3.org/Graphics/SVG/1.1/DTD/svg11.dtd">

 <svg xmlns="http://www.w3.org/2000/svg" viewBox="0 0 64 64" >
                <path class="col-fill-company"
                  d="M35 0c-.395 0-.75.23-.91.586l-9.512 20.93A4.998 4.998 0 0 0 21 20H4c-1.102 0-2 .898-2 2v36c0 1.102.898 2 2 2h17c1.898 0 3.531-1.074 4.379-2.637.031.012.055.035.086.043 1.098.297 2.91.453 4.316.453.32 0 .625-.007.895-.023L56.68 56.21A4.618 4.618 0 0 0 61 51.609c0-1.23-.48-2.39-1.352-3.261-.086-.082-.168-.164-.257-.239A5.017 5.017 0 0 0 62 43.72V43c0-1.43-.605-2.727-1.574-3.637A5.309 5.309 0 0 0 64 34.328a5.341 5.341 0 0 0-2.469-4.496 5.313 5.313 0 0 0 2.469-4.5V25c0-2.758-2.242-5-5-5H39.281l2.824-11.305a6.952 6.952 0 0 0-1.273-6.004A6.958 6.958 0 0 0 35.312 0zm.64 2.008a4.975 4.975 0 0 1 3.618 1.914 4.975 4.975 0 0 1 .91 4.289L37.218 20H35c-.555 0-1 .445-1 1 0 .555.445 1 1 1h24c1.652 0 3 1.348 3 3v.332a3.313 3.313 0 0 1-2.781 3.281l-2.383.403A.998.998 0 0 0 57 31h1.672A3.334 3.334 0 0 1 62 34.332a3.313 3.313 0 0 1-2.781 3.281l-2.383.403A.998.998 0 0 0 57 40c1.652 0 3 1.348 3 3v.719a3.004 3.004 0 0 1-2.41 2.941l-1.785.36A1 1 0 0 0 56 49h.39c.696 0 1.352.27 1.844.766.496.492.766 1.148.766 1.843a2.614 2.614 0 0 1-2.445 2.606L30.55 55.84c-1.238.078-3.453-.063-4.563-.363-.011-.004-.023 0-.035-.004.016-.157.047-.309.047-.473V25c0-.484-.09-.941-.219-1.387a.872.872 0 0 0 .13-.199zM4 22h17c1.652 0 3 1.348 3 3v30c0 1.652-1.348 3-3 3H4zm3 2c-.555 0-1 .445-1 1 0 .555.445 1 1 1h2c.555 0 1-.445 1-1 0-.555-.445-1-1-1zm0 5c-.555 0-1 .445-1 1 0 .555.445 1 1 1h2c.555 0 1-.445 1-1 0-.555-.445-1-1-1zm0 5c-.555 0-1 .445-1 1 0 .555.445 1 1 1h2c.555 0 1-.445 1-1 0-.555-.445-1-1-1zm0 5c-.555 0-1 .445-1 1 0 .555.445 1 1 1h2c.555 0 1-.445 1-1 0-.555-.445-1-1-1zm0 5c-.555 0-1 .445-1 1 0 .555.445 1 1 1h2c.555 0 1-.445 1-1 0-.555-.445-1-1-1zm10 4c-1.652 0-3 1.348-3 3s1.348 3 3 3 3-1.348 3-3-1.348-3-3-3zM7 49c-.555 0-1 .445-1 1 0 .555.445 1 1 1h2c.555 0 1-.445 1-1 0-.555-.445-1-1-1zm10 .668c.734 0 1.332.598 1.332 1.332 0 .734-.598 1.332-1.332 1.332A1.334 1.334 0 0 1 15.668 51c0-.734.598-1.332 1.332-1.332zM7 54c-.555 0-1 .445-1 1 0 .555.445 1 1 1h2c.555 0 1-.445 1-1 0-.555-.445-1-1-1z">
                </path>
              </svg>