<?xml version="1.0" standalone="no"?>
<!DOCTYPE svg PUBLIC "-//W3C//DTD SVG 1.1//EN" "http://www.w3.org/Graphics/SVG/1.1/DTD/svg11.dtd">

 <svg xmlns="http://www.w3.org/2000/svg" viewBox="0 0 80 80">
                <path class="col-fill-company"
                  d="M40 7C21.785 7 7 21.785 7 40s14.785 33 33 33 33-14.785 33-33S58.215 7 40 7zm0 2c17.133 0 31 13.867 31 31S57.133 71 40 71 9 57.133 9 40 22.867 9 40 9zm0 2a1.999 1.999 0 1 0 0 4 1.999 1.999 0 1 0 0-4zm-6.98 1.922c-.024-.004-.047 0-.067 0a1 1 0 0 0-.906 1.258.997.997 0 0 0 1.223.707c.535-.145.851-.692.71-1.227a1 1 0 0 0-.96-.738zm13.96 0a1.002 1.002 0 0 0-.25 1.969 1 1 0 0 0 1.223-.707.998.998 0 0 0-.098-.762 1.011 1.011 0 0 0-.605-.469c-.09-.02-.18-.031-.27-.031zm-20.503 2.695a1.008 1.008 0 0 0-.945.742 1.01 1.01 0 0 0 .1.758c.134.23.352.399.61.465a.99.99 0 0 0 .758-.098 1.002 1.002 0 0 0-.523-1.867zm26.976.004A.998.998 0 0 0 53 17.484a.996.996 0 0 0 1.363-.363.982.982 0 0 0 .102-.762.988.988 0 0 0-1.012-.738zM40 17c-.55 0-1 .45-1 1s.45 1 1 1 1-.45 1-1-.45-1-1-1zm-19.078 2.906c-.27 0-.531.106-.719.297a.995.995 0 0 0 0 1.41.995.995 0 0 0 1.41 0 .995.995 0 0 0 0-1.41.983.983 0 0 0-.691-.297zm38.183 0c-.27 0-.53.106-.718.297a.995.995 0 0 0 0 1.41.995.995 0 0 0 1.41 0 .995.995 0 0 0 0-1.41.983.983 0 0 0-.692-.297zM40 21c-.55 0-1 .45-1 1s.45 1 1 1 1-.45 1-1-.45-1-1-1zm7.191.313l-6.539 14.753A4.014 4.014 0 0 0 40 36c-2.2 0-4 1.8-4 4s1.8 4 4 4a3.94 3.94 0 0 0 2.016-.566l8.422 8.414 1.41-1.41-8.414-8.422A3.94 3.94 0 0 0 44 40c0-1.262-.605-2.379-1.527-3.113L49.02 22.12zM63.36 25.5a1 1 0 0 0-.844 1.5.997.997 0 0 0 1.364.363.99.99 0 0 0 .469-.605.986.986 0 0 0-.098-.758 1.008 1.008 0 0 0-.89-.5zm-46.789 0a.997.997 0 0 0-.453 1.863c.477.278 1.09.114 1.367-.363a1 1 0 0 0-.367-1.363.993.993 0 0 0-.547-.137zm-2.66 6.516a1 1 0 0 0-.25 1.965 1.005 1.005 0 0 0 1.227-.711 1.002 1.002 0 0 0-.711-1.223.869.869 0 0 0-.266-.031zm52.207 0a.997.997 0 0 0-1.004 1.254c.145.535.692.851 1.227.71.531-.144.847-.69.707-1.226a1.005 1.005 0 0 0-.93-.738zM13 38a1.999 1.999 0 1 0 0 4 1.999 1.999 0 1 0 0-4zm27 0c1.117 0 2 .883 2 2s-.883 2-2 2-2-.883-2-2 .883-2 2-2zm27 0a1.999 1.999 0 1 0 0 4 1.999 1.999 0 1 0 0-4zm-49 1c-.55 0-1 .45-1 1s.45 1 1 1 1-.45 1-1-.45-1-1-1zm4 0c-.55 0-1 .45-1 1s.45 1 1 1 1-.45 1-1-.45-1-1-1zm36 0c-.55 0-1 .45-1 1s.45 1 1 1 1-.45 1-1-.45-1-1-1zm4 0c-.55 0-1 .45-1 1s.45 1 1 1 1-.45 1-1-.45-1-1-1zm-48.043 6.988a1.008 1.008 0 0 0-.906.5.998.998 0 0 0-.098.762.998.998 0 0 0 1.223.703.999.999 0 0 0-.219-1.965zm52.113 0c-.449.008-.84.309-.957.746a.997.997 0 0 0 .707 1.223 1 1 0 1 0 .52-1.93.919.919 0 0 0-.27-.039zM16.594 52.5a1.002 1.002 0 0 0-.844 1.5c.133.227.352.395.61.465.253.07.527.035.757-.102a.97.97 0 0 0 .465-.605.986.986 0 0 0-.098-.758 1.008 1.008 0 0 0-.89-.5zm46.738 0a1 1 0 1 0 1.016.742.99.99 0 0 0-.47-.605.993.993 0 0 0-.546-.137zM40 57c-.55 0-1 .45-1 1s.45 1 1 1 1-.45 1-1-.45-1-1-1zm-19.078 1.094a.988.988 0 0 0-.719.293.995.995 0 0 0 0 1.41.995.995 0 0 0 1.41 0 .995.995 0 0 0 0-1.41.963.963 0 0 0-.691-.293zm38.183 0a.988.988 0 0 0-.718.293.995.995 0 0 0 0 1.41.995.995 0 0 0 1.41 0 .995.995 0 0 0 0-1.41.963.963 0 0 0-.692-.293zM40 61c-.55 0-1 .45-1 1s.45 1 1 1 1-.45 1-1-.45-1-1-1zm13.473 1.379c-.164.008-.328.05-.473.137a.995.995 0 0 0-.367 1.363c.277.48.887.644 1.367.371.227-.133.395-.352.465-.61a.982.982 0 0 0-.102-.761.999.999 0 0 0-.89-.5zm-27.02.008c-.34.015-.648.203-.82.496a1.01 1.01 0 0 0-.102.758c.07.257.239.476.469.609a1.002 1.002 0 0 0 1-1.734.994.994 0 0 0-.547-.13zM40 65a1.999 1.999 0 1 0 0 4 1.999 1.999 0 1 0 0-4zm-7 .082a.993.993 0 0 0-.953.742.998.998 0 1 0 1.93.516 1 1 0 0 0-.707-1.227 1.212 1.212 0 0 0-.27-.031zm14.027 0a1.005 1.005 0 0 0-1.008 1.258 1 1 0 0 0 1.227.707.997.997 0 0 0 .707-1.223.996.996 0 0 0-.926-.742z">
                </path>
              </svg>